#!OML:ASF F:\VICON\USERDATA\INSTALL\rory3\rory3.ASF
:FULLY-SPECIFIED
:DEGREES
307
root -1.58722 15.1594 -1.48043 159.317 -32.7026 -174.344
lowerback 24.4533 -1.98612 -0.347093
upperback -0.0194182 -2.66156 2.11696
thorax -13.6619 -1.18422 3.58899
lowerneck -4.00725 -10.5106 -6.49962
upperneck 6.64151 -13.7824 1.13281
head 3.43052 -6.98354 0.827841
rclavicle 5.07274e-014 -4.27387e-015
rhumerus 48.3861 -6.68246 -42.6417
rradius 97.139
rwrist 38.7415
rhand -40.5255 18.7635
rfingers 7.12502
rthumb -13.4743 -10.7806
lclavicle 5.07274e-014 -4.27387e-015
lhumerus 63.3032 -26.0928 72.3673
lradius 80.845
lwrist 60.4602
lhand -13.9133 51.9694
lfingers 7.12502
lthumb 12.2127 -278.407
rfemur -16.7608 -0.610273 29.2508
rtibia 79.5161
rfoot -29.3095 -12.4674
rtoes -18.7442
lfemur -15.9192 7.19869 -10.745
ltibia 79.9139
lfoot -29.9201 -18.2387
ltoes -9.92073
308
root -1.59143 15.1927 -1.51659 159.294 -32.9258 -174.302
lowerback 24.4483 -2.04299 -0.190955
upperback -0.187162 -2.68879 2.0136
thorax -13.8677 -1.19927 3.39721
lowerneck -2.06613 -10.8599 -5.54264
upperneck 4.46396 -14.3352 0.0207052
head 2.17355 -7.24929 0.506381
rclavicle 4.35587e-014 1.98785e-015
rhumerus 47.9888 -6.57016 -42.5092
rradius 97.0479
rwrist 38.774
rhand -40.1802 18.2463
rfingers 7.12502
rthumb -13.1415 -11.3196
lclavicle 4.35587e-014 1.98785e-015
lhumerus 63.2324 -26.3417 72.0531
lradius 80.6339
lwrist 60.6088
lhand -14.1893 51.7633
lfingers 7.12502
lthumb 11.9466 -278.598
rfemur -16.5114 -0.739446 29.3504
rtibia 79.1914
rfoot -29.1331 -12.3541
rtoes -16.752
lfemur -15.6331 7.10949 -10.7298
ltibia 79.3308
lfoot -30.0656 -17.7799
ltoes -12.101
309
root -1.58908 15.242 -1.56489 159.223 -33.4613 -174.128
lowerback 24.3701 -2.12029 -0.15886
upperback -0.340022 -2.7683 2.01394
thorax -14.0013 -1.22808 3.4094
lowerneck -1.41776 -10.9793 -5.2295
upperneck 4.00308 -14.5364 -0.220588
head 1.86657 -7.34513 0.437621
rclavicle 5.66164e-014 4.87022e-015
rhumerus 47.5126 -6.54168 -42.2549
rradius 96.9023
rwrist 38.9775
rhand -41.2015 18.613
rfingers 7.12502
rthumb -14.1258 -10.8868
lclavicle 5.66164e-014 4.87022e-015
lhumerus 63.2154 -26.6364 71.9274
lradius 80.478
lwrist 60.7916
lhand -14.3991 51.6112
lfingers 7.12502
lthumb 11.7442 -278.738
rfemur -16.2318 -0.996484 29.5559
rtibia 78.7301
rfoot -28.917 -12.3257
rtoes -14.6381
lfemur -15.3776 6.69133 -10.6453
ltibia 78.5408
lfoot -30.1405 -17.3929
ltoes -14.1492
310
root -1.59063 15.3136 -1.59936 160.216 -34.2178 -175.377
lowerback 24.1577 -2.02747 -1.20166
upperback -0.610071 -2.95774 1.64132
thorax -14.158 -1.23404 3.64352
lowerneck -1.07386 -10.9951 -5.38471
upperneck 4.05679 -14.5914 0.15841
head 1.87151 -7.37013 0.59034
rclavicle 8.68441e-015 1.68967e-015
rhumerus 47.0726 -6.47554 -42.0262
rradius 96.5822
rwrist 39.1467
rhand -41.2268 19.1532
rfingers 7.12502
rthumb -14.1502 -10.3449
lclavicle 8.68441e-015 1.68967e-015
lhumerus 63.1281 -26.8777 71.8117
lradius 80.3221
lwrist 60.8745
lhand -14.2679 51.5267
lfingers 7.12502
lthumb 11.8708 -278.83
rfemur -16.3577 -1.08964 28.2338
rtibia 78.3565
rfoot -28.7578 -11.7182
rtoes -11.0139
lfemur -15.1618 6.18838 -12.205
ltibia 77.4123
lfoot -29.7389 -17.0257
ltoes -14.6749
311
root -1.60187 15.4066 -1.63644 162.717 -36.3723 -178.143
lowerback 23.0279 -2.19144 -3.51567
upperback -0.871599 -3.86454 0.862793
thorax -13.6692 -1.51237 4.32249
lowerneck -0.708256 -11.0818 -5.62668
upperneck 3.54626 -14.7318 0.540367
head 1.69935 -7.4287 0.775832
rclavicle -5.11311e-014 1.12313e-014
rhumerus 46.96 -6.47189 -41.861
rradius 96.3912
rwrist 39.0231
rhand -40.9187 19.1077
rfingers 7.12502
rthumb -13.8533 -10.411
lclavicle -5.11311e-014 1.12313e-014
lhumerus 63.2782 -26.8943 71.4856
lradius 80.1362
lwrist 61.025
lhand -14.0102 51.2
lfingers 7.12502
lthumb 12.1193 -279.171
rfemur -16.8268 -2.28952 24.9464
rtibia 77.9526
rfoot -28.768 -10.7688
rtoes -8.06316
lfemur -15.4996 4.55177 -15.8679
ltibia 75.9307
lfoot -28.8817 -16.4282
ltoes -14.1606
312
root -1.61969 15.4799 -1.6313 164.225 -37.1011 -179.631
lowerback 22.4554 -2.22109 -4.29892
upperback -1.03874 -4.13689 0.450934
thorax -13.4922 -1.59974 4.35656
lowerneck -0.959953 -10.9095 -5.81918
upperneck 3.84818 -14.507 1.14316
head 1.903 -7.31231 0.967581
rclavicle -8.33032e-015 -2.31087e-014
rhumerus 46.8812 -6.5376 -41.9372
rradius 96.4762
rwrist 39.0679
rhand -40.8412 20.2119
rfingers 7.12502
rthumb -13.7786 -9.31187
lclavicle -8.33032e-015 -2.31087e-014
lhumerus 63.5633 -26.9195 71.2868
lradius 79.7449
lwrist 61.1581
lhand -13.745 51.0562
lfingers 7.12502
lthumb 12.3749 -279.33
rfemur -17.1777 -2.70428 23.2031
rtibia 77.4685
rfoot -28.3154 -10.2218
rtoes -8.5564
lfemur -15.6323 3.90585 -17.7836
ltibia 74.6605
lfoot -28.0259 -16.0777
ltoes -13.2998
313
root -1.60499 15.5736 -1.68721 163.582 -37.4527 -178.737
lowerback 22.3857 -2.33142 -3.99145
upperback -1.04007 -4.16593 0.678377
thorax -13.4532 -1.62615 4.44438
lowerneck -1.31249 -10.8052 -6.96054
upperneck 4.58333 -14.3952 2.48802
head 2.42197 -7.25758 1.51441
rclavicle -5.38272e-014 1.33186e-014
rhumerus 46.4985 -6.52496 -42.0041
rradius 96.3955
rwrist 39.3191
rhand -43.9525 18.6354
rfingers 7.12502
rthumb -16.7754 -10.6598
lclavicle -5.38272e-014 1.33186e-014
lhumerus 63.7328 -27.1407 71.1686
lradius 79.2981
lwrist 61.0835
lhand -13.6653 51.1514
lfingers 7.12502
lthumb 12.4518 -279.239
rfemur -16.266 -2.91377 24.2224
rtibia 76.4772
rfoot -27.9808 -11.1445
rtoes -11.2543
lfemur -14.9368 3.62057 -16.7502
ltibia 73.4668
lfoot -27.4 -16.8305
ltoes -12.4277
314
root -1.60332 15.6733 -1.72013 163.77 -38.1473 -178.84
lowerback 22.2794 -2.38307 -4.10882
upperback -1.171 -4.26817 0.594355
thorax -13.5345 -1.65954 4.44667
lowerneck -0.874468 -10.8645 -7.07204
upperneck 4.36843 -14.5219 2.86537
head 2.32288 -7.31803 1.67634
rclavicle -6.27507e-014 -1.9133e-015
rhumerus 45.8987 -6.62807 -41.7675
rradius 96.1627
rwrist 39.3447
rhand -44.4913 19.9789
rfingers 7.12502
rthumb -17.2941 -9.27164
lclavicle -6.27507e-014 -1.9133e-015
lhumerus 63.8959 -27.6352 71.0874
lradius 78.9815
lwrist 61.0237
lhand -13.9102 51.2018
lfingers 7.12502
lthumb 12.2157 -279.175
rfemur -15.5599 -3.47462 24.0479
rtibia 75.4079
rfoot -27.4844 -11.7848
rtoes -13.8257
lfemur -14.4042 3.04127 -16.9434
ltibia 72.1369
lfoot -26.7274 -17.1728
ltoes -11.6159
315
root -1.60531 15.7903 -1.74173 164.51 -39.0243 -179.226
lowerback 21.7779 -2.53885 -4.34814
upperback -1.1784 -4.51297 0.573841
thorax -13.2145 -1.76999 4.59985
lowerneck -1.5254 -10.9784 -7.60156
upperneck 4.48068 -14.6232 3.21215
head 2.56172 -7.36158 1.82071
rclavicle 3.23211e-014 3.97569e-016
rhumerus 45.9723 -6.88523 -41.3219
rradius 95.9832
rwrist 39.004
rhand -43.3535 20.0068
rfingers 7.12502
rthumb -16.1987 -9.33644
lclavicle 3.23211e-014 3.97569e-016
lhumerus 64.4118 -27.7106 70.9222
lradius 78.6482
lwrist 61.1274
lhand -14.2714 50.9974
lfingers 7.12502
lthumb 11.8674 -279.359
rfemur -15.2855 -4.12414 23.5096
rtibia 74.1125
rfoot -26.7138 -11.827
rtoes -14.19
lfemur -14.2241 2.28707 -17.5462
ltibia 70.6381
lfoot -25.7011 -17.4115
ltoes -10.1764
316
root -1.60757 15.9285 -1.77073 165.097 -39.8019 -179.453
lowerback 21.3585 -2.65722 -4.51339
upperback -1.38314 -4.69353 0.523748
thorax -13.1852 -1.83772 4.67023
lowerneck -1.29362 -11.1229 -7.70645
upperneck 4.37888 -14.8346 3.29089
head 2.51498 -7.46871 1.86773
rclavicle -1.49275e-014 1.31198e-014
rhumerus 45.5779 -6.90184 -40.9654
rradius 95.7326
rwrist 38.8349
rhand -43.534 19.5741
rfingers 7.12502
rthumb -16.3726 -9.75488
lclavicle -1.49275e-014 1.31198e-014
lhumerus 64.4785 -28.1157 70.9183
lradius 78.2544
lwrist 61.0337
lhand -14.393 50.8455
lfingers 7.12502
lthumb 11.7501 -279.504
rfemur -14.9019 -4.60283 23.1425
rtibia 72.5649
rfoot -25.961 -11.2034
rtoes -11.4025
lfemur -13.8817 1.70805 -17.9309
ltibia 68.9035
lfoot -24.5837 -17.5486
ltoes -9.49243
317
root -1.60585 16.0791 -1.80885 165.462 -40.4177 -179.5
lowerback 20.962 -2.68498 -4.64983
upperback -1.53294 -4.74336 0.509715
thorax -13.1162 -1.85001 4.72305
lowerneck -1.09493 -11.1879 -7.81607
upperneck 4.40423 -14.9518 3.51651
head 2.52649 -7.52847 1.96131
rclavicle 7.76254e-014 -2.3059e-014
rhumerus 44.9567 -6.99919 -40.8595
rradius 95.4711
rwrist 38.9553
rhand -42.2045 20.1508
rfingers 7.12502
rthumb -15.0922 -9.279
lclavicle 7.76254e-014 -2.3059e-014
lhumerus 64.5503 -28.6814 70.966
lradius 77.8973
lwrist 61.001
lhand -14.5962 50.903
lfingers 7.12502
lthumb 11.5542 -279.435
rfemur -14.3157 -4.95971 23.0364
rtibia 70.8139
rfoot -25.1645 -10.7559
rtoes -9.47149
lfemur -13.2981 1.30464 -18.0026
ltibia 67.0017
lfoot -23.2381 -18.1237
ltoes -8.63153
